<mxfile host="app.diagrams.net" modified="2020-09-25T02:45:13.656Z" agent="5.0 (Macintosh; Intel Mac OS X 10_15_6) AppleWebKit/537.36 (KHTML, like Gecko) Chrome/78.0.3904.108 Safari/537.36" etag="wM1FI3wv_ClJPK19dFim" version="13.7.5" type="github">
  <diagram id="926w7o4FcigpHhNNAj3N" name="Page-1">
    <mxGraphModel dx="1514" dy="760" grid="1" gridSize="10" guides="1" tooltips="1" connect="1" arrows="1" fold="1" page="1" pageScale="1" pageWidth="827" pageHeight="1169" math="0" shadow="0">
      <root>
        <mxCell id="0" />
        <mxCell id="1" parent="0" />
        <object label="" placeholders="1" instruction="edit data of the lower shape within the group" id="wrAGaedanw8fGfwGKOR0-1">
          <mxCell style="group;resizable=0;" vertex="1" connectable="0" parent="1">
            <mxGeometry x="90" y="20" width="160" height="170" as="geometry" />
          </mxCell>
        </object>
        <object label="&lt;div style=&quot;color: rgb(255 , 255 , 255) ; white-space: normal&quot;&gt;&lt;span style=&quot;font-size: 14px&quot;&gt;&lt;b&gt;%name%&lt;/b&gt;&lt;/span&gt;&lt;/div&gt;&lt;div style=&quot;color: rgb(255 , 255 , 255) ; white-space: normal&quot;&gt;&lt;font style=&quot;font-size: 8px&quot;&gt;[Person]&lt;/font&gt;&lt;/div&gt;&lt;div style=&quot;color: rgb(255 , 255 , 255) ; white-space: normal ; font-size: 8px&quot;&gt;&lt;span style=&quot;font-size: x-small&quot;&gt;&lt;br&gt;&lt;/span&gt;&lt;/div&gt;&lt;div style=&quot;color: rgb(255 , 255 , 255) ; white-space: normal&quot;&gt;&lt;font size=&quot;1&quot;&gt;%description%&lt;/font&gt;&lt;/div&gt;" name="Actor Name" description="Description" placeholders="1" id="wrAGaedanw8fGfwGKOR0-2">
          <mxCell style="rounded=1;whiteSpace=wrap;html=1;strokeColor=#00315C;fillColor=#004179;fontColor=#000000;arcSize=31;" vertex="1" parent="wrAGaedanw8fGfwGKOR0-1">
            <mxGeometry y="70" width="160" height="100" as="geometry" />
          </mxCell>
        </object>
        <mxCell id="wrAGaedanw8fGfwGKOR0-3" style="edgeStyle=orthogonalEdgeStyle;rounded=0;orthogonalLoop=1;jettySize=auto;html=1;exitX=0.5;exitY=1;exitDx=0;exitDy=0;" edge="1" parent="wrAGaedanw8fGfwGKOR0-1" source="wrAGaedanw8fGfwGKOR0-4" target="wrAGaedanw8fGfwGKOR0-2">
          <mxGeometry relative="1" as="geometry" />
        </mxCell>
        <mxCell id="wrAGaedanw8fGfwGKOR0-4" value="" style="ellipse;whiteSpace=wrap;html=1;aspect=fixed;strokeColor=#00315C;fillColor=#004179;fontColor=#000000;" vertex="1" parent="wrAGaedanw8fGfwGKOR0-1">
          <mxGeometry x="40" width="80" height="80" as="geometry" />
        </mxCell>
        <object label="&lt;font style=&quot;font-size: 10px&quot;&gt;&lt;b&gt;%name%&lt;/b&gt;&lt;br style=&quot;font-size: 10px&quot;&gt;[Software System]&lt;/font&gt;" placeholders="1" name="Software System Name" id="wrAGaedanw8fGfwGKOR0-5">
          <mxCell style="rounded=0;whiteSpace=wrap;html=1;strokeColor=#828282;fillColor=none;fontColor=#000000;align=left;labelPosition=center;verticalLabelPosition=middle;verticalAlign=bottom;dashed=1;strokeWidth=1;perimeterSpacing=0;spacing=2;spacingTop=0;fontSize=10;dashPattern=8 8;" vertex="1" parent="1">
            <mxGeometry x="320" y="40" width="200" height="370" as="geometry" />
          </mxCell>
        </object>
        <object label="&lt;div style=&quot;color: rgb(255 , 255 , 255) ; white-space: normal&quot;&gt;&lt;span style=&quot;font-size: 14px&quot;&gt;&lt;b&gt;%name%&lt;/b&gt;&lt;/span&gt;&lt;/div&gt;&lt;div style=&quot;color: rgb(255 , 255 , 255) ; font-size: 12px ; white-space: normal&quot;&gt;&lt;font style=&quot;font-size: 8px&quot;&gt;[Container: %technology%]&lt;/font&gt;&lt;/div&gt;&lt;div style=&quot;color: rgb(255 , 255 , 255) ; white-space: normal ; font-size: 8px&quot;&gt;&lt;font style=&quot;line-height: 9.6px&quot;&gt;&lt;br&gt;&lt;/font&gt;&lt;/div&gt;&lt;div style=&quot;color: rgb(255 , 255 , 255) ; white-space: normal&quot;&gt;%description%&lt;/div&gt;" placeholders="1" name="Container Name" description="Description" technology="e.g. PostgreSQL" id="wrAGaedanw8fGfwGKOR0-6">
          <mxCell style="shape=cylinder;whiteSpace=wrap;html=1;boundedLbl=1;backgroundOutline=1;strokeColor=#2F6FA6;strokeWidth=1;fillColor=#3B8CD2;fontSize=9;fontColor=#000000;align=center;resizable=0;" vertex="1" parent="1">
            <mxGeometry x="320" y="560" width="180" height="120" as="geometry" />
          </mxCell>
        </object>
        <object label="&lt;b&gt;%name%&lt;/b&gt;&lt;br style=&quot;font-size: 10px&quot;&gt;[%technology%]" placeholders="1" name="Dependency Operation Name" technology="JDBC" id="wrAGaedanw8fGfwGKOR0-7">
          <mxCell style="endArrow=block;html=1;fontSize=10;fontColor=#404040;strokeWidth=1;endFill=1;dashed=1;dashPattern=8 8;strokeColor=#828282;elbow=vertical;" edge="1" parent="1">
            <mxGeometry width="50" height="50" relative="1" as="geometry">
              <mxPoint x="320" y="480" as="sourcePoint" />
              <mxPoint x="520" y="480" as="targetPoint" />
            </mxGeometry>
          </mxCell>
        </object>
        <object label="&lt;span style=&quot;font-size: 10px&quot;&gt;&lt;b&gt;%name%&lt;/b&gt;&lt;br&gt;[%technology%]&lt;br&gt;&lt;/span&gt;" placeholders="1" name="Data Flow Item Name" technology="HTTP" id="wrAGaedanw8fGfwGKOR0-8">
          <mxCell style="endArrow=block;html=1;fontSize=10;fontColor=#404040;strokeWidth=1;endFill=1;strokeColor=#828282;elbow=vertical;" edge="1" parent="1">
            <mxGeometry width="50" height="50" relative="1" as="geometry">
              <mxPoint x="320" y="519.5" as="sourcePoint" />
              <mxPoint x="520" y="519.5" as="targetPoint" />
            </mxGeometry>
          </mxCell>
        </object>
        <object label="%name%&lt;br style=&quot;font-size: 10px&quot;&gt;&lt;font size=&quot;1&quot;&gt;&lt;span style=&quot;font-weight: 400&quot;&gt;%description%&lt;/span&gt;&lt;/font&gt;" placeholders="1" name="Diagram Name" description="Description" id="wrAGaedanw8fGfwGKOR0-9">
          <mxCell style="text;html=1;resizable=0;points=[];autosize=1;align=left;verticalAlign=top;spacingTop=-4;fontSize=14;fontColor=#404040;fontStyle=1" vertex="1" parent="1">
            <mxGeometry x="80" y="880" width="110" height="40" as="geometry" />
          </mxCell>
        </object>
        <object label="&lt;div&gt;&lt;span style=&quot;font-size: 14px&quot;&gt;&lt;b&gt;%name%&lt;/b&gt;&lt;/span&gt;&lt;/div&gt;&lt;div&gt;&lt;span style=&quot;font-size: 8px&quot;&gt;[Software System&lt;/span&gt;&lt;span style=&quot;font-size: 8px&quot;&gt;]&lt;/span&gt;&lt;/div&gt;&lt;div&gt;&lt;span style=&quot;font-size: 8px&quot;&gt;&lt;br&gt;&lt;/span&gt;&lt;/div&gt;&lt;div&gt;&lt;font size=&quot;1&quot;&gt;%description%&lt;/font&gt;&lt;/div&gt;" placeholders="1" name="External System Name" description="Description of Software System" id="wrAGaedanw8fGfwGKOR0-10">
          <mxCell style="rounded=0;whiteSpace=wrap;html=1;fillColor=#999999;fontColor=#FFFFFF;strokeColor=#828282;resizable=0;" vertex="1" parent="1">
            <mxGeometry x="80" y="240" width="180" height="120" as="geometry" />
          </mxCell>
        </object>
        <object label="&lt;div&gt;&lt;span style=&quot;font-size: 14px&quot;&gt;&lt;b&gt;%name%&lt;/b&gt;&lt;/span&gt;&lt;/div&gt;&lt;div&gt;&lt;span style=&quot;font-size: 8px&quot;&gt;[Software System]&lt;/span&gt;&lt;/div&gt;&lt;div&gt;&lt;span style=&quot;font-size: 8px&quot;&gt;&lt;br&gt;&lt;/span&gt;&lt;/div&gt;&lt;div&gt;&lt;font size=&quot;1&quot;&gt;%description%&lt;/font&gt;&lt;/div&gt;" placeholders="1" name="Software System Name" description="Description" id="wrAGaedanw8fGfwGKOR0-11">
          <mxCell style="rounded=0;whiteSpace=wrap;html=1;fillColor=#0067BA;fontColor=#FFFFFF;strokeColor=#005DA8;resizable=0;" vertex="1" parent="1">
            <mxGeometry x="80" y="400" width="180" height="120" as="geometry" />
          </mxCell>
        </object>
        <object label="&lt;div&gt;&lt;span style=&quot;font-size: 14px&quot;&gt;&lt;b&gt;%name%&lt;/b&gt;&lt;/span&gt;&lt;/div&gt;&lt;div&gt;&lt;span style=&quot;font-size: 8px&quot;&gt;[Container: %technology%]&lt;/span&gt;&lt;/div&gt;&lt;div&gt;&lt;span style=&quot;font-size: 8px&quot;&gt;&lt;br&gt;&lt;/span&gt;&lt;/div&gt;&lt;div&gt;&lt;font size=&quot;1&quot;&gt;%description%&lt;/font&gt;&lt;/div&gt;" placeholders="1" name="Container Name" technology="e.g. Python, Flask" description="Description" id="wrAGaedanw8fGfwGKOR0-12">
          <mxCell style="rounded=0;whiteSpace=wrap;html=1;fillColor=#3B8CD2;fontColor=#FFFFFF;strokeColor=#2F6FA6;resizable=0;" vertex="1" parent="1">
            <mxGeometry x="80" y="560" width="180" height="120" as="geometry" />
          </mxCell>
        </object>
        <object label="&lt;div&gt;&lt;span style=&quot;font-size: 14px&quot;&gt;&lt;b&gt;%name%&lt;/b&gt;&lt;/span&gt;&lt;/div&gt;&lt;div&gt;&lt;span style=&quot;font-size: 8px&quot;&gt;[Component: %technology%]&lt;/span&gt;&lt;/div&gt;&lt;div&gt;&lt;span style=&quot;font-size: 8px&quot;&gt;&lt;br&gt;&lt;/span&gt;&lt;/div&gt;&lt;div&gt;&lt;font size=&quot;1&quot;&gt;%description%&lt;/font&gt;&lt;/div&gt;" placeholders="1" name="Component Name" technology="e.g. Spring Bean" description="Description" id="wrAGaedanw8fGfwGKOR0-13">
          <mxCell style="rounded=0;whiteSpace=wrap;html=1;fillColor=#85baf0;fontColor=#000000;strokeColor=#6992BD;resizable=0;" vertex="1" parent="1">
            <mxGeometry x="80" y="720" width="180" height="120" as="geometry" />
          </mxCell>
        </object>
        <object label="&lt;font style=&quot;font-size: 10px&quot;&gt;&lt;b&gt;%name%&lt;/b&gt;&lt;br style=&quot;font-size: 10px&quot;&gt;[Container]&lt;/font&gt;" placeholders="1" name="Container Name" id="wrAGaedanw8fGfwGKOR0-14">
          <mxCell style="rounded=0;whiteSpace=wrap;html=1;strokeColor=#828282;fillColor=none;fontColor=#000000;align=left;labelPosition=center;verticalLabelPosition=middle;verticalAlign=bottom;dashed=1;strokeWidth=1;perimeterSpacing=0;spacing=2;spacingTop=0;fontSize=10;dashPattern=8 8;container=0;" vertex="1" parent="1">
            <mxGeometry x="560" y="40" width="200" height="370" as="geometry">
              <mxRectangle x="560" y="40" width="110" height="30" as="alternateBounds" />
            </mxGeometry>
          </mxCell>
        </object>
        <object label="&lt;font style=&quot;font-size: 10px&quot;&gt;&lt;b&gt;%name%&lt;/b&gt;&lt;br style=&quot;font-size: 10px&quot;&gt;[Domain]&lt;/font&gt;" placeholders="1" name="Domain Name" id="wrAGaedanw8fGfwGKOR0-15">
          <mxCell style="rounded=0;whiteSpace=wrap;html=1;strokeColor=#828282;fillColor=none;fontColor=#000000;align=left;labelPosition=center;verticalLabelPosition=middle;verticalAlign=bottom;dashed=1;strokeWidth=1;perimeterSpacing=0;spacing=2;spacingTop=0;fontSize=10;dashPattern=8 8;" vertex="1" parent="1">
            <mxGeometry x="560" y="480" width="200" height="370" as="geometry" />
          </mxCell>
        </object>
        <object label="" placeholders="1" instruction="edit data of the lower shape within the group" id="wrAGaedanw8fGfwGKOR0-16">
          <mxCell style="group;resizable=0;" vertex="1" connectable="0" parent="1">
            <mxGeometry x="330" y="720" width="160" height="170" as="geometry" />
          </mxCell>
        </object>
        <object label="&lt;div style=&quot;color: rgb(255 , 255 , 255) ; white-space: normal&quot;&gt;&lt;span style=&quot;font-size: 14px&quot;&gt;&lt;b&gt;%name%&lt;/b&gt;&lt;/span&gt;&lt;/div&gt;&lt;div style=&quot;color: rgb(255 , 255 , 255) ; white-space: normal&quot;&gt;&lt;font style=&quot;font-size: 8px&quot;&gt;[Person]&lt;/font&gt;&lt;/div&gt;&lt;div style=&quot;color: rgb(255 , 255 , 255) ; white-space: normal ; font-size: 8px&quot;&gt;&lt;span style=&quot;font-size: x-small&quot;&gt;&lt;br&gt;&lt;/span&gt;&lt;/div&gt;&lt;div style=&quot;color: rgb(255 , 255 , 255) ; white-space: normal&quot;&gt;&lt;font size=&quot;1&quot;&gt;%description%&lt;/font&gt;&lt;/div&gt;" name="External Actor Name" description="Description" placeholders="1" id="wrAGaedanw8fGfwGKOR0-17">
          <mxCell style="rounded=1;whiteSpace=wrap;html=1;strokeColor=#828282;fillColor=#999999;fontColor=#000000;arcSize=31;" vertex="1" parent="wrAGaedanw8fGfwGKOR0-16">
            <mxGeometry y="70" width="160" height="100" as="geometry" />
          </mxCell>
        </object>
        <mxCell id="wrAGaedanw8fGfwGKOR0-18" value="" style="ellipse;whiteSpace=wrap;html=1;aspect=fixed;strokeColor=#828282;fillColor=#999999;fontColor=#000000;" vertex="1" parent="wrAGaedanw8fGfwGKOR0-16">
          <mxGeometry x="40" width="80" height="80" as="geometry" />
        </mxCell>
      </root>
    </mxGraphModel>
  </diagram>
</mxfile>
